<svg xmlns="http://www.w3.org/2000/svg" xmlns:se="http://svg-edit.googlecode.com" xmlns:xlink="http://www.w3.org/1999/xlink" xmlns:dc="http://purl.org/dc/elements/1.1/" xmlns:cc="http://creativecommons.org/ns#" xmlns:rdf="http://www.w3.org/1999/02/22-rdf-syntax-ns#" xmlns:inkscape="http://www.inkscape.org/namespaces/inkscape" width="205.41025405271841" height="39.15384600336495">                                    <title>my vector image</title>                                    <!-- Created with Vector Paint - http://www.vectorpaint.yaks.com/ https://chrome.google.com/webstore/detail/hnbpdiengicdefcjecjbnjnoifekhgdo -->                                    <rect id="backgroundrect" width="100%" height="100%" x="0" y="0" fill="#FFFFFF" stroke="none" class=""/>                                <g class="currentLayer"><title>Layer 1</title><polyline fill="none" stroke="#222222" stroke-width="2" stroke-linejoin="round" stroke-dashoffset="" fill-rule="nonzero" marker-start="" marker-mid="" marker-end="" id="svg_3" points="33.083215828786024,-158.42921834395486 33.083215828786024,-158.42921834395486 " style="color: rgb(0, 0, 0);"/><polyline fill="none" stroke="#222222" stroke-width="2" stroke-linejoin="round" stroke-dashoffset="" fill-rule="nonzero" marker-start="" marker-mid="" marker-end="" id="svg_4" points="123.8239563024369,89.71892907378427 123.8239563024369,89.71892907378427 " style="color: rgb(0, 0, 0);"/><polyline fill="none" stroke="#222222" stroke-width="2" stroke-linejoin="round" stroke-dashoffset="" fill-rule="nonzero" marker-start="" marker-mid="" marker-end="" id="svg_5" points="283.7004990417265,16.879423115343428 283.7004990417265,16.879423115343428 " style="color: rgb(0, 0, 0);"/><polyline fill="none" stroke="#222222" stroke-width="2" stroke-linejoin="round" stroke-dashoffset="" fill-rule="nonzero" marker-start="" marker-mid="" marker-end="" id="svg_7" points="352.10045091649494,158.26544067516608 352.10045091649494,158.26544067516608 " style="color: rgb(0, 0, 0);"/><polyline fill="none" stroke="#222222" stroke-linejoin="round" stroke-dashoffset="" fill-rule="nonzero" marker-start="" marker-mid="" marker-end="" id="svg_23" points="108.60257396691708,0.6025578278136265 109.11539446719746,0.6025578278136265 109.6282149674779,0.6025578278136265 110.14103546775829,1.1153783280940388 110.65385596803873,1.1153783280940388 111.16667646831911,1.628198828374451 111.67949696859955,1.628198828374451 111.67949696859955,2.1410193286548918 112.19231746887999,2.1410193286548918 112.70513796916038,2.1410193286548918 113.21795846944082,2.653839828935304 113.7307789697212,2.653839828935304 113.7307789697212,2.653839828935304 114.75641997028208,2.653839828935304 115.7820609708429,3.1666603292157163 116.80770197140373,3.1666603292157163 117.32052247168411,3.6794808294961285 117.83334297196456,3.6794808294961285 118.346163472245,3.6794808294961285 119.37180447280582,4.19230132977654 120.39744547336664,4.19230132977654 120.91026597364709,4.705121830056953 121.93590697420791,5.217942330337394 122.4487274744883,5.217942330337394 123.98718897532956,5.730762830617806 124.50000947561,5.730762830617806 125.01282997589038,5.730762830617806 125.52565047617084,6.243583330898218 126.03847097645121,6.243583330898218 126.55129147673165,6.7564038311786305 127.57693247729247,6.7564038311786305 128.6025734778533,6.7564038311786305 129.62821447841412,7.269224331459043 130.653855478975,7.269224331459043 131.67949647953583,7.782044831739455 134.24359898093792,8.294865332019894 136.29488098205954,8.294865332019894 137.3205219826204,8.807685832300308 138.85898348346166,9.32050633258072 140.39744498430292,9.833326832861133 141.42308598486375,10.346147333141545 142.44872698542457,10.858967833421957 143.4743679859854,10.858967833421957 145.01282948682666,11.88460883398281 146.03847048738749,11.88460883398281 147.0641114879483,12.910249834543635 149.11539348907002,13.935890835104459 150.65385498991122,14.961531835665312 152.1923164907525,15.474352335945724 152.70513699103293,15.987172836226136 153.73077799159375,16.49999333650655 154.24359849187414,17.012813836786957 154.75641899215458,17.5256343370674 155.26923949243502,17.5256343370674 155.26923949243502,18.551275337628226 155.26923949243502,18.551275337628226 155.26923949243502,19.06409583790864 155.26923949243502,19.57691633818908 155.26923949243502,20.089736838469463 154.75641899215458,20.089736838469463 154.24359849187414,20.602557338749904 153.2179574913133,20.602557338749904 151.67949599047205,21.115377839030288 151.16667549019166,21.115377839030288 149.6282139893504,21.628198339310728 147.57693198822875,22.14101883959117 145.52564998710704,22.14101883959117 143.98718848626584,22.14101883959117 141.93590648514413,22.653839339871553 139.88462448402248,22.653839339871553 138.34616298318122,22.653839339871553 136.80770148234,22.653839339871553 134.7564194812183,22.653839339871553 133.2179579803771,22.653839339871553 131.67949647953583,22.653839339871553 130.14103497869456,22.653839339871553 128.6025734778533,22.653839339871553 126.55129147673165,22.653839339871553 125.01282997589038,22.653839339871553 123.47436847504912,22.653839339871553 121.93590697420791,22.653839339871553 119.8846249730862,22.653839339871553 117.83334297196456,22.653839339871553 115.26924047056247,22.14101883959117 113.21795846944082,22.14101883959117 111.67949696859955,22.14101883959117 110.14103546775829,22.14101883959117 108.08975346663664,22.14101883959117 106.03847146551499,21.628198339310728 105.0128304649541,21.628198339310728 102.96154846383246,21.628198339310728 101.42308696299119,21.115377839030288 99.88462546214998,21.115377839030288 98.34616396130872,20.602557338749904 96.29488196018707,20.602557338749904 94.7564204593458,20.602557338749904 93.21795895850454,20.089736838469463 91.67949745766327,20.089736838469463 90.65385645710245,20.089736838469463 89.11539495626118,20.089736838469463 88.08975395570036,20.089736838469463 86.55129245485915,20.089736838469463 84.50001045373745,20.089736838469463 83.98718995345706,20.089736838469463 82.96154895289618,20.089736838469463 81.42308745205497,19.57691633818908 79.8846259512137,19.57691633818908 78.34616445037244,19.57691633818908 76.80770294953118,19.06409583790864 75.78206194897035,19.06409583790864 74.24360044812914,19.06409583790864 72.19231844700744,19.06409583790864 70.65385694616617,19.06409583790864 68.60257494504452,19.06409583790864 67.5769339444837,19.06409583790864 66.55129294392287,19.06409583790864 65.01283144308161,19.06409583790864 63.987190442520784,19.06409583790864 62.44872894167952,19.06409583790864 60.910267440838254,19.06409583790864 59.88462644027743,19.06409583790864 58.858985439716605,19.06409583790864 57.32052393887534,19.06409583790864 55.26924193775369,19.06409583790864 53.730780436912426,19.06409583790864 52.19231893607122,18.038454837347814 50.65385743522995,18.038454837347814 49.11539593438869,18.038454837347814 48.08975493382786,18.038454837347814 46.5512934329866,18.038454837347814 45.52565243242577,18.038454837347814 44.50001143186495,18.038454837347814 43.47437043130412,18.038454837347814 42.44872943074324,18.038454837347814 41.42308843018242,18.038454837347814 40.39744742962159,18.038454837347814 38.85898592878033,18.038454837347814 38.346165428499944,18.038454837347814 37.32052442793912,18.038454837347814 37.32052442793912,18.038454837347814 36.80770392765868,18.038454837347814 36.29488342737824,18.038454837347814 35.782062927097854,18.038454837347814 34.75642192653703,19.06409583790864 34.24360142625659,19.06409583790864 33.217960425695765,19.06409583790864 32.705139925415324,19.06409583790864 31.6794989248545,19.57691633818908 30.653857924293675,19.57691633818908 30.14103742401329,19.57691633818908 29.11539642345241,19.57691633818908 27.5769349226112,20.089736838469463 26.55129392205032,20.602557338749904 25.01283242120911,20.602557338749904 23.987191420648287,21.115377839030288 22.961550420087406,21.628198339310728 21.93590941952658,21.628198339310728 21.423088919246197,22.14101883959117 20.397447918685316,22.653839339871553 19.884627418404932,23.166659840151993 19.37180691812449,23.679480340432377 18.858986417844108,24.192300840712818 18.346165917563667,24.192300840712818 17.83334541728328,25.217941841273642 17.83334541728328,25.730762341554083 17.83334541728328,26.243582841834467 17.320524917002842,26.243582841834467 17.320524917002842,26.756403342114908 17.320524917002842,27.26922384239529 17.320524917002842,27.782044342675732 17.320524917002842,28.294864842956116 17.320524917002842,28.807685343236557 17.320524917002842,29.320505843516997 17.320524917002842,29.83332634379738 17.83334541728328,29.83332634379738 17.83334541728328,30.346146844077822 17.83334541728328,30.858967344358206 18.346165917563667,30.858967344358206 18.858986417844108,31.371787844638646 19.37180691812449,31.371787844638646 19.37180691812449,31.884608344919087 19.884627418404932,31.884608344919087 19.884627418404932,32.39742884519947 20.397447918685316,32.39742884519947 20.910268418965757,32.39742884519947 21.423088919246197,32.39742884519947 21.423088919246197,32.91024934547991 21.93590941952658,32.91024934547991 22.448729919807022,32.91024934547991 22.448729919807022,33.423069845760295 22.961550420087406,33.423069845760295 23.474370920367846,33.423069845760295 23.987191420648287,33.935890346040736 25.01283242120911,34.44871084632112 26.038473421769936,34.96153134660156 26.55129392205032,35.474351846882 27.5769349226112,35.987172347162385 28.089755422891585,36.499992847442826 29.11539642345241,36.499992847442826 29.62821692373285,37.01281334772321 30.14103742401329,37.52563384800365 30.653857924293675,37.52563384800365 30.653857924293675,38.03845434828409 31.166678424574116,38.03845434828409 31.6794989248545,38.03845434828409 32.19231942513494,38.03845434828409 32.705139925415324,38.03845434828409 32.705139925415324,38.551274848564475 33.217960425695765,38.551274848564475 33.7307809259762,38.551274848564475 34.24360142625659,38.551274848564475 " style="color: rgb(0, 0, 0);"/></g></svg>