<svg xmlns="http://www.w3.org/2000/svg" xmlns:se="http://svg-edit.googlecode.com" xmlns:xlink="http://www.w3.org/1999/xlink" xmlns:dc="http://purl.org/dc/elements/1.1/" xmlns:cc="http://creativecommons.org/ns#" xmlns:rdf="http://www.w3.org/1999/02/22-rdf-syntax-ns#" xmlns:inkscape="http://www.inkscape.org/namespaces/inkscape" width="300.2244873046875" height="44.18367385864258">                                    <title>my vector image</title>                                    <!-- Created with Vector Paint - http://www.vectorpaint.yaks.com/ https://chrome.google.com/webstore/detail/hnbpdiengicdefcjecjbnjnoifekhgdo -->                                    <rect id="backgroundrect" width="100%" height="100%" x="0" y="0" fill="#FFFFFF" stroke="none" class=""/>                                <g class="currentLayer"><title>Layer 1</title><polyline fill="none" stroke="#222222" stroke-linejoin="round" stroke-dashoffset="" fill-rule="nonzero" marker-start="" marker-mid="" marker-end="" id="svg_1" points="12.411711146074879,15.139966303932567 12.946470503000057,15.139966303932567 12.946470503000057,15.139966303932567 13.481229859925236,15.139966303932567 14.550748573775593,15.139966303932567 16.15502664455107,15.139966303932567 16.68978600147625,15.139966303932567 17.759304715326607,15.139966303932567 18.828823429176964,15.139966303932567 19.363582786102143,15.139966303932567 20.433101499952443,15.139966303932567 20.96786085687762,15.139966303932567 22.03737957072798,15.674725660857746 23.106898284578335,15.674725660857746 23.641657641503457,16.209485017782896 25.78069506920417,16.209485017782896 26.850213783054528,16.209485017782896 27.919732496904828,16.209485017782896 29.524010567680364,16.209485017782896 30.59352928153072,16.209485017782896 31.66304799538102,16.209485017782896 32.73256670923138,16.209485017782896 34.33684478000691,16.209485017782896 35.406363493857214,16.209485017782896 36.47588220770757,16.209485017782896 38.080160278483106,16.209485017782896 39.684438349258585,16.209485017782896 40.75395706310894,16.209485017782896 42.35823513388442,16.209485017782896 43.42775384773478,16.209485017782896 45.03203191851031,16.209485017782896 46.10155063236061,16.209485017782896 47.70582870313615,16.209485017782896 49.310106773911684,16.209485017782896 51.44914420161234,16.209485017782896 53.05342227238788,16.209485017782896 55.192459700088534,16.209485017782896 56.79673777086407,16.209485017782896 58.40101584163955,16.209485017782896 61.074812626265384,16.209485017782896 62.67909069704092,16.209485017782896 64.28336876781646,16.209485017782896 66.42240619551711,16.209485017782896 68.02668426629265,16.209485017782896 69.63096233706814,16.209485017782896 71.23524040784366,16.209485017782896 73.37427783554432,16.209485017782896 74.97855590631985,16.209485017782896 76.04807462017015,16.209485017782896 78.18711204787087,15.674725660857746 79.25663076172123,15.674725660857746 81.93042754634706,15.674725660857746 84.06946497404772,15.139966303932567 85.13898368789808,15.139966303932567 87.27802111559873,15.139966303932567 88.88229918637427,15.139966303932567 90.4865772571498,15.139966303932567 92.62561468485046,15.139966303932567 94.229892755626,15.139966303932567 95.83417082640148,15.139966303932567 97.43844889717701,15.139966303932567 98.50796761102731,15.139966303932567 100.11224568180285,15.139966303932567 101.1817643956532,15.139966303932567 103.32080182335386,15.139966303932567 104.9250798941294,15.139966303932567 106.52935796490488,15.139966303932567 108.66839539260559,15.139966303932567 110.80743282030625,15.139966303932567 114.01598896185726,15.139966303932567 115.6202670326328,15.139966303932567 117.75930446033345,15.139966303932567 119.89834188803417,15.139966303932567 122.03737931573482,15.139966303932567 123.64165738651036,15.139966303932567 126.85021352806137,15.139966303932567 128.98925095576203,15.139966303932567 131.12828838346275,15.139966303932567 133.80208516808858,15.139966303932567 135.9411225957893,15.139966303932567 138.08016002348995,14.605206947007389 140.2191974511906,14.605206947007389 142.8929942358165,14.605206947007389 143.9625129496668,14.07044759008221 145.03203166351716,14.07044759008221 146.6363097342927,13.000928876231882 148.77534716199335,13.000928876231882 150.3796252327689,12.466169519306703 151.4491439466192,12.466169519306703 153.5881813743199,11.931410162381553 154.65770008817026,11.931410162381553 156.26197815894574,11.396650805456375 157.33149687279612,11.396650805456375 158.93577494357157,11.396650805456375 160.5400530143471,11.396650805456375 161.60957172819747,11.396650805456375 163.21384979897294,11.396650805456375 164.81812786974848,11.396650805456375 166.42240594052396,11.396650805456375 168.56144336822467,11.396650805456375 170.70048079592533,11.396650805456375 173.37427758055122,11.396650805456375 175.51331500825188,11.396650805456375 178.18711179287772,11.396650805456375 181.9304272913539,11.396650805456375 185.13898343290492,11.396650805456375 187.81278021753081,11.396650805456375 191.02133635908183,11.396650805456375 194.22989250063281,11.396650805456375 196.3689299283335,11.396650805456375 200.1122454268097,11.396650805456375 202.78604221143559,11.396650805456375 204.92507963913624,11.396650805456375 207.59887642376208,11.396650805456375 210.27267320838797,11.396650805456375 212.41171063608863,11.396650805456375 214.55074806378934,11.396650805456375 217.22454484841512,11.396650805456375 219.898341633041,11.931410162381553 221.50261970381655,12.466169519306703 222.5721384176669,13.000928876231882 223.10689777459208,13.000928876231882 223.64165713151726,14.07044759008221 223.64165713151726,14.605206947007389 223.64165713151726,14.605206947007389 224.17641648844233,15.139966303932567 224.17641648844233,15.674725660857746 224.17641648844233,16.744244374708074 224.17641648844233,17.279003731633253 224.71117584536753,18.88328180240876 224.71117584536753,19.95280051625909 224.71117584536753,20.487559873184267 224.71117584536753,21.022319230109446 224.17641648844233,21.557078587034624 224.17641648844233,22.091837943959803 223.64165713151726,22.626597300884924 222.5721384176669,23.161356657810103 222.03737906074173,23.69611601473528 220.96786034689137,23.69611601473528 219.898341633041,24.230875371660463 218.29406356226548,24.76563472858564 216.15502613456488,25.300394085510817 213.48122934993899,25.835153442435995 210.80743256531315,25.835153442435995 208.13363578068726,26.904672156286296 204.39032028221104,27.439431513211474 202.78604221143559,27.974190870136653 199.57748606988457,28.50895022706183 196.90368928525868,28.50895022706183 194.22989250063281,28.50895022706183 192.0908550729322,28.50895022706183 188.88229893138111,28.50895022706183 186.74326150368046,28.50895022706183 185.13898343290492,29.04370958398701 182.99994600520427,29.04370958398701 181.39566793442873,29.04370958398701 179.25663050672807,30.11322829783731 177.65235243595257,30.11322829783731 176.04807436517706,30.11322829783731 174.44379629440152,30.64798765476249 172.83951822362604,30.64798765476249 170.70048079592533,31.182747011687667 169.09620272514985,31.182747011687667 166.42240594052396,31.182747011687667 164.2833685128233,31.182747011687667 161.60957172819747,31.182747011687667 158.93577494357157,31.182747011687667 157.33149687279612,31.182747011687667 155.19245944509538,31.182747011687667 152.51866266046954,31.182747011687667 149.8448658758437,30.64798765476249 147.705828448143,30.64798765476249 143.9625129496668,30.64798765476249 140.2191974511906,30.11322829783731 137.54540066656477,30.11322829783731 134.87160388193894,29.578468940912188 132.1978070973131,29.578468940912188 128.4544915988369,29.578468940912188 126.3154541711362,29.578468940912188 123.64165738651036,29.04370958398701 120.43310124495935,29.04370958398701 118.82882317418381,29.04370958398701 117.22454510340833,29.04370958398701 115.08550767570762,29.04370958398701 113.48122960493208,29.04370958398701 112.4117108910818,29.04370958398701 110.27267346338107,29.04370958398701 108.66839539260559,29.04370958398701 107.06411732183005,29.04370958398701 104.9250798941294,29.04370958398701 100.11224568180285,29.04370958398701 98.50796761102731,29.04370958398701 97.43844889717701,28.50895022706183 95.2994114694763,28.50895022706183 94.229892755626,28.50895022706183 92.09085532792528,27.974190870136653 89.95181790022463,27.974190870136653 88.88229918637427,27.439431513211474 87.27802111559873,26.904672156286296 85.13898368789808,26.904672156286296 83.53470561712254,26.369912799361117 81.93042754634706,26.369912799361117 80.8609088324967,25.835153442435995 79.79139011864636,25.835153442435995 78.18711204787087,25.835153442435995 76.58283397709533,25.835153442435995 75.51331526324503,25.835153442435995 73.9090371924695,25.835153442435995 72.30475912169396,25.835153442435995 71.23524040784366,25.835153442435995 69.63096233706814,25.835153442435995 68.02668426629265,25.835153442435995 65.88764683859193,25.835153442435995 64.28336876781646,25.835153442435995 62.67909069704092,25.835153442435995 61.074812626265384,25.835153442435995 59.470534555489905,25.835153442435995 57.33149712778919,25.835153442435995 55.72721905701371,25.835153442435995 54.12294098623818,25.835153442435995 53.05342227238788,25.835153442435995 51.44914420161234,25.835153442435995 49.310106773911684,25.835153442435995 48.24058806006133,25.835153442435995 47.17106934621098,25.835153442435995 45.56679127543549,25.835153442435995 45.03203191851031,25.835153442435995 44.497272561585135,25.835153442435995 43.42775384773478,25.835153442435995 42.35823513388442,26.369912799361117 41.8234757769593,26.369912799361117 39.684438349258585,26.904672156286296 38.080160278483106,26.904672156286296 37.01064156463274,27.439431513211474 35.406363493857214,27.974190870136653 34.871604136932035,28.50895022706183 33.802085423081735,29.04370958398701 32.73256670923138,29.578468940912188 32.1978073523062,30.11322829783731 31.66304799538102,30.64798765476249 31.128288638455842,31.71750636861285 31.128288638455842,32.252265725538024 31.128288638455842,32.7870250824632 31.128288638455842,33.32178443938838 31.66304799538102,33.8565437963135 32.1978073523062,33.8565437963135 32.73256670923138,33.8565437963135 33.267326066156556,34.39130315323868 34.33684478000691,34.92606251016386 34.871604136932035,34.92606251016386 35.94112285078239,35.99558122401422 36.47588220770757,35.99558122401422 37.54540092155793,36.530340580939395 38.61491963540823,36.530340580939395 39.149678992333406,37.065099937864574 40.75395706310894,37.065099937864574 41.8234757769593,37.599859294789695 43.42775384773478,38.134618651714874 44.497272561585135,38.66937800864005 47.17106934621098,39.20413736556523 49.844866130836806,40.27365607941559 51.98390355853751,40.808415436340766 53.588181629313,41.34317479326589 55.72721905701371,41.34317479326589 57.86625648471437,41.87793415019107 62.14433134011575,41.87793415019107 64.81812812474158,41.87793415019107 69.09620298014295,41.87793415019107 73.37427783554432,41.87793415019107 77.11759333402051,41.87793415019107 80.8609088324967,41.87793415019107 83.53470561712254,41.87793415019107 86.20850240174843,41.87793415019107 87.81278047252391,41.87793415019107 90.4865772571498,41.87793415019107 92.62561468485046,41.87793415019107 94.76465211255112,41.87793415019107 96.36893018332665,41.87793415019107 97.97320825410219,41.87793415019107 100.11224568180285,41.87793415019107 101.71652375257838,41.87793415019107 103.32080182335386,41.87793415019107 105.45983925105458,41.87793415019107 107.06411732183005,41.87793415019107 108.13363603568041,41.87793415019107 108.66839539260559,41.87793415019107 109.7379141064559,41.87793415019107 110.27267346338107,41.87793415019107 110.80743282030625,41.87793415019107 111.8769515341566,41.87793415019107 112.4117108910818,41.87793415019107 112.94647024800696,41.87793415019107 114.01598896185726,41.87793415019107 114.55074831878244,41.87793415019107 116.15502638955797,41.87793415019107 117.22454510340833,41.87793415019107 118.82882317418381,41.87793415019107 119.89834188803417,41.87793415019107 120.96786060188452,41.87793415019107 122.03737931573482,41.87793415019107 123.10689802958518,41.87793415019107 124.71117610036072,41.87793415019107 125.24593545728584,41.87793415019107 126.85021352806137,41.87793415019107 128.98925095576203,41.87793415019107 130.0587696696124,41.87793415019107 131.66304774038792,41.87793415019107 133.80208516808858,41.87793415019107 135.40636323886412,41.87793415019107 137.0106413096396,41.87793415019107 139.1496787373403,41.87793415019107 140.7539568081158,41.87793415019107 142.8929942358165,41.87793415019107 143.9625129496668,41.34317479326589 145.56679102044234,41.34317479326589 147.17106909121784,41.34317479326589 148.24058780506817,41.34317479326589 148.77534716199335,41.34317479326589 149.8448658758437,41.34317479326589 150.3796252327689,41.34317479326589 150.91438458969407,41.34317479326589 " style="color: rgb(0, 0, 0);"/></g></svg>