<svg xmlns="http://www.w3.org/2000/svg" xmlns:se="http://svg-edit.googlecode.com" xmlns:xlink="http://www.w3.org/1999/xlink" xmlns:dc="http://purl.org/dc/elements/1.1/" xmlns:cc="http://creativecommons.org/ns#" xmlns:rdf="http://www.w3.org/1999/02/22-rdf-syntax-ns#" xmlns:inkscape="http://www.inkscape.org/namespaces/inkscape" width="340" height="88.36363627091157">                                    <title>my vector image</title>                                    <!-- Created with Vector Paint - http://www.vectorpaint.yaks.com/ https://chrome.google.com/webstore/detail/hnbpdiengicdefcjecjbnjnoifekhgdo -->                                    <rect id="backgroundrect" width="100%" height="100%" x="0" y="0" fill="#FFFFFF" stroke="none" class=""/>                                <g class="currentLayer"><title>Layer 1</title><polyline fill="none" stroke="#000000" stroke-dashoffset="" fill-rule="nonzero" marker-start="" marker-mid="" marker-end="" id="svg_33" points="336.79411287156245,44.890378133777936 336.25935351463727,44.890378133777936 " style="color: rgb(0, 0, 0);"/><polyline fill="none" stroke="#000000" stroke-dashoffset="" fill-rule="nonzero" marker-start="" marker-mid="" marker-end="" id="svg_34" points="209.30482535616005,4.609623045565314 209.83958471308523,4.609623045565314 210.37434407001038,4.609623045565314 210.9091034269356,4.609623045565314 211.97862214078594,4.609623045565314 213.04814085463624,4.609623045565314 214.1176595684866,4.609623045565314 216.79145635311244,4.609623045565314 218.93049378081315,4.609623045565314 221.604290565439,4.609623045565314 223.74332799313964,4.609623045565314 227.48664349161584,4.609623045565314 230.6951996331669,5.144382402490464 232.83423706086757,5.679141759415643 234.97327448856828,6.213901116340821 237.11231191626888,6.748660473265971 238.71658998704442,7.28341983019115 240.85562741474513,7.818179187116328 242.99466484244584,7.818179187116328 244.59894291322126,8.352938544041507 246.73798034092198,8.887697900966657 247.80749905477234,9.422457257891836 249.41177712554787,9.957216614817014 250.48129583939823,9.957216614817014 251.55081455324847,10.491975971742164 252.08557391017365,10.491975971742164 253.155092624024,11.026735328667343 253.68985198094921,11.026735328667343 254.75937069479954,11.561494685592521 255.29413005172472,12.0962540425177 256.3636487655751,12.63101339944285 257.9679268363506,13.165772756368028 258.5026861932758,13.165772756368028 259.57220490712604,13.700532113293207 260.1069642640512,13.700532113293207 261.17648297790157,14.235291470218357 262.2460016917519,14.770050827143535 262.7807610486771,14.770050827143535 263.85027976252746,14.770050827143535 265.454557833303,15.304810184068714 266.52407654715324,15.839569540993892 267.5935952610036,16.90908825484422 268.66311397485396,17.4438476117694 270.2673920456295,17.4438476117694 270.80215140255467,17.4438476117694 271.871670116405,17.97860696869455 272.4064294733302,18.513366325619728 272.9411888302554,18.513366325619728 274.01070754410574,19.582885039470085 275.080226257956,20.117644396395235 276.14974497180634,21.187163110245592 277.21926368565664,21.721922467170742 278.28878239950706,22.25668182409592 279.8930604702826,23.326200537946278 280.96257918413295,23.860959894871428 282.0320978979832,24.395719251796603 282.56685725490837,24.930478608721785 283.10161661183355,25.999997322572113 283.6363759687587,26.534756679497292 284.1711353256839,27.06951603642247 284.7058946826091,27.60427539334762 284.7058946826091,28.1390347502728 285.24065403953426,28.673794107197978 285.24065403953426,29.208553464123128 285.24065403953426,30.278072177973485 285.24065403953426,30.812831534898663 285.24065403953426,30.812831534898663 285.24065403953426,31.347590891823813 284.7058946826091,31.88235024874899 284.1711353256839,32.95186896259932 283.6363759687587,33.4866283195245 282.56685725490837,34.55614703337486 282.0320978979832,35.090906390300006 280.42781982720777,36.16042510415036 279.3583011133574,36.69518446107551 278.28878239950706,37.76470317492587 276.6845043287315,38.29946253185105 274.01070754410574,39.36898124570138 272.4064294733302,40.438499959551706 270.2673920456295,41.50801867340206 268.1283546179288,42.04277803032724 265.454557833303,42.57753738725239 263.3155204056023,43.64705610110275 260.1069642640512,44.18181545802793 256.3636487655751,44.716574814953105 253.68985198094921,45.25133417187823 249.94653648247305,45.786093528803406 245.66846162707162,46.320852885728584 242.45990548552066,46.85561224265376 239.78610870089477,47.39037159957894 237.11231191626888,47.92513095650412 233.36899641779277,47.92513095650412 231.22995899009203,47.92513095650412 228.5561622054662,48.4598903134293 225.34760606391518,48.4598903134293 223.2085686362145,48.4598903134293 220.00001249466345,48.4598903134293 217.32621571003762,48.4598903134293 214.65241892541178,48.4598903134293 211.44386278386077,48.4598903134293 208.77006599923487,48.4598903134293 206.09626921460904,48.4598903134293 203.95723178690838,48.4598903134293 200.74867564535737,48.4598903134293 198.60963821765665,48.4598903134293 195.93584143303082,48.4598903134293 192.7272852914798,48.4598903134293 190.5882478637791,48.4598903134293 188.9839697930036,48.4598903134293 186.8449323653029,48.4598903134293 184.70589493760224,48.4598903134293 183.1016168668267,48.4598903134293 180.42782008220087,48.4598903134293 178.2887826545002,48.4598903134293 176.68450458372467,48.4598903134293 174.54546715602402,48.4598903134293 172.4064297283233,48.4598903134293 170.80215165754782,48.4598903134293 169.1978735867723,47.92513095650412 167.59359551599675,47.92513095650412 165.98931744522127,47.92513095650412 164.38503937444574,47.39037159957894 162.78076130367026,47.39037159957894 161.17648323289473,47.39037159957894 160.10696451904437,47.39037159957894 158.5026864482689,47.39037159957894 156.36364902056818,47.39037159957894 155.29413030671788,47.39037159957894 153.68985223594234,47.39037159957894 152.08557416516686,47.39037159957894 149.94653673746615,47.39037159957894 147.2727399528403,47.39037159957894 145.1337025251396,47.39037159957894 142.45990574051376,47.39037159957894 140.85562766973828,47.39037159957894 138.1818308851124,47.39037159957894 135.50803410048655,47.39037159957894 132.29947795893554,47.39037159957894 129.62568117430965,47.39037159957894 126.95188438968381,47.39037159957894 124.81284696198315,47.39037159957894 123.20856889120762,47.39037159957894 121.06953146350696,47.39037159957894 119.46525339273143,47.39037159957894 117.32621596503077,47.39037159957894 115.72193789425525,47.39037159957894 114.65241918040488,47.39037159957894 112.51338175270422,47.39037159957894 111.44386303885386,47.39037159957894 109.83958496807838,47.39037159957894 107.16578818345249,47.39037159957894 105.02675075575183,47.39037159957894 103.4224726849763,47.39037159957894 101.28343525727564,47.39037159957894 99.14439782957498,47.39037159957894 97.00536040187427,47.39037159957894 94.86632297417361,47.39037159957894 92.72728554647288,47.39037159957894 91.12300747569742,47.39037159957894 89.51872940492188,47.39037159957894 87.9144513341464,47.39037159957894 85.24065454952051,47.39037159957894 83.63637647874504,47.39037159957894 82.0320984079695,47.39037159957894 79.89306098026884,46.85561224265376 78.2887829094933,46.85561224265376 76.14974548179265,46.85561224265376 74.54546741101711,46.85561224265376 72.94118934024164,46.85561224265376 72.40642998331646,46.85561224265376 71.3369112694661,46.85561224265376 70.26739255561574,46.85561224265376 69.73263319869056,46.85561224265376 68.66311448484026,46.85561224265376 67.59359577098991,46.85561224265376 65.98931770021437,46.85561224265376 64.91979898636407,46.85561224265376 62.78076155866336,46.85561224265376 61.17648348788788,46.85561224265376 59.037446060187165,46.85561224265376 56.89840863248651,46.85561224265376 54.75937120478579,46.85561224265376 52.620333777085136,46.85561224265376 50.48129634938448,46.85561224265376 48.342258921683765,46.85561224265376 47.27274020783341,46.85561224265376 45.66846213705793,46.85561224265376 44.59894342320757,46.85561224265376 43.529424709357215,46.85561224265376 42.99466535243209,46.85561224265376 41.39038728165656,46.85561224265376 40.85562792473138,46.85561224265376 39.2513498539559,46.85561224265376 38.71659049703072,46.85561224265376 37.11231242625519,46.85561224265376 36.04279371240483,46.85561224265376 34.43851564162935,46.85561224265376 32.834237570853816,46.85561224265376 31.229959500078337,46.85561224265376 29.090922072377623,47.39037159957894 28.021403358527323,47.39037159957894 26.417125287751787,47.39037159957894 24.81284721697625,47.92513095650412 22.673809789275595,47.92513095650412 20.534772361574937,48.4598903134293 18.930494290799402,48.4598903134293 17.326216220023866,48.4598903134293 15.187178792323209,48.4598903134293 13.582900721547672,48.99464967035442 12.513382007697373,48.99464967035442 10.909103936921838,48.99464967035442 9.839585223071479,49.5294090272796 8.77006650922118,49.5294090272796 7.165788438445645,50.06416838420478 6.631029081520467,50.06416838420478 6.096269724595288,50.06416838420478 5.5615103676701665,50.598927741129955 4.4919916538198095,51.66844645498031 3.957232296894631,51.66844645498031 3.957232296894631,52.20320581190549 3.4224729399694525,52.20320581190549 3.4224729399694525,52.73796516883061 2.887713583044274,53.80748388268097 2.3529542261190954,54.87700259653133 2.3529542261190954,55.411761953456505 2.3529542261190954,56.481280667306805 2.3529542261190954,57.016040024231984 2.3529542261190954,58.085558738082334 1.8181948691939738,58.62031809500752 1.8181948691939738,59.689836808857876 1.8181948691939738,60.75935552270818 1.8181948691939738,61.82887423655853 1.8181948691939738,62.89839295040889 1.8181948691939738,63.96791166425919 1.8181948691939738,65.03743037810955 1.8181948691939738,65.57218973503473 1.8181948691939738,66.64170844888508 1.8181948691939738,67.17646780581026 2.3529542261190954,67.71122716273538 2.3529542261190954,69.31550523351092 2.3529542261190954,69.31550523351092 2.887713583044274,69.8502645904361 3.957232296894631,70.38502394736128 4.4919916538198095,70.91978330428645 5.5615103676701665,71.45454266121158 6.631029081520467,71.98930201813675 7.165788438445645,72.52406137506193 8.235307152296002,73.05882073198711 8.77006650922118,73.05882073198711 9.839585223071479,73.05882073198711 10.909103936921838,73.05882073198711 11.978622650772195,73.59358008891229 13.582900721547672,73.59358008891229 15.187178792323209,73.59358008891229 16.791456863098745,73.59358008891229 18.395734933874223,73.59358008891229 19.46525364772458,73.59358008891229 21.604291075425238,73.59358008891229 22.673809789275595,73.59358008891229 24.278087860051127,73.59358008891229 25.88236593082661,74.12833944583747 26.951884644676966,74.12833944583747 27.486644001602144,74.66309880276265 28.021403358527323,74.66309880276265 28.556162715452444,74.66309880276265 29.090922072377623,74.66309880276265 30.16044078622798,74.66309880276265 31.229959500078337,74.66309880276265 31.764718857003512,74.66309880276265 32.29947821392864,75.19785815968777 33.90375628470417,75.19785815968777 34.43851564162935,75.19785815968777 35.50803435547971,75.19785815968777 36.04279371240483,75.73261751661296 37.11231242625519,75.73261751661296 37.647071783180365,75.73261751661296 39.2513498539559,76.26737687353813 39.78610921088102,76.26737687353813 39.78610921088102,76.26737687353813 40.3208685678062,76.26737687353813 40.85562792473138,76.26737687353813 " style="color: rgb(0, 0, 0);"/></g></svg>