<svg xmlns="http://www.w3.org/2000/svg" xmlns:se="http://svg-edit.googlecode.com" xmlns:xlink="http://www.w3.org/1999/xlink" xmlns:dc="http://purl.org/dc/elements/1.1/" xmlns:cc="http://creativecommons.org/ns#" xmlns:rdf="http://www.w3.org/1999/02/22-rdf-syntax-ns#" xmlns:inkscape="http://www.inkscape.org/namespaces/inkscape" width="271.0588239194012" height="25.957219292244872">                                    <title>my vector image</title>                                    <!-- Created with Vector Paint - http://www.vectorpaint.yaks.com/ https://chrome.google.com/webstore/detail/hnbpdiengicdefcjecjbnjnoifekhgdo -->                                    <rect id="backgroundrect" width="100%" height="100%" x="0" y="0" fill="#FFFFFF" stroke="none" class=""/>                                <g class="currentLayer"><title>Layer 1</title><polyline fill="none" stroke="#222222" stroke-width="2" stroke-linejoin="round" stroke-dashoffset="" fill-rule="nonzero" marker-start="" marker-mid="" marker-end="" id="svg_3" points="33.083215828786024,-158.42921834395486 33.083215828786024,-158.42921834395486 " style="color: rgb(0, 0, 0);"/><polyline fill="none" stroke="#222222" stroke-width="2" stroke-linejoin="round" stroke-dashoffset="" fill-rule="nonzero" marker-start="" marker-mid="" marker-end="" id="svg_4" points="123.8239563024369,89.71892907378427 123.8239563024369,89.71892907378427 " style="color: rgb(0, 0, 0);"/><polyline fill="none" stroke="#222222" stroke-width="2" stroke-linejoin="round" stroke-dashoffset="" fill-rule="nonzero" marker-start="" marker-mid="" marker-end="" id="svg_5" points="283.7004990417265,16.879423115343428 283.7004990417265,16.879423115343428 " style="color: rgb(0, 0, 0);"/><polyline fill="none" stroke="#222222" stroke-width="2" stroke-linejoin="round" stroke-dashoffset="" fill-rule="nonzero" marker-start="" marker-mid="" marker-end="" id="svg_7" points="352.10045091649494,158.26544067516608 352.10045091649494,158.26544067516608 " style="color: rgb(0, 0, 0);"/><polyline fill="none" stroke="#222222" stroke-width="2" stroke-linejoin="round" stroke-dashoffset="" fill-rule="nonzero" marker-start="" marker-mid="" marker-end="" id="svg_1" points="159.32620410785006,2.8181759359538887 159.86096346477524,2.8181759359538887 159.86096346477524,3.352935292879067 160.39572282170042,3.352935292879067 160.9304821786256,3.352935292879067 161.46524153555077,3.352935292879067 161.46524153555077,3.352935292879067 161.46524153555077,3.8876946498042173 162.00000089247595,3.8876946498042173 162.53476024940113,4.422454006729396 163.06951960632625,4.422454006729396 163.60427896325143,4.957213363654574 164.1390383201766,4.957213363654574 164.6737976771018,5.491972720579724 165.20855703402694,5.491972720579724 165.74331639095215,6.026732077504903 166.27807574787732,6.026732077504903 166.27807574787732,6.561491434430081 166.81283510480245,6.561491434430081 167.34759446172762,6.561491434430081 167.8823538186528,6.561491434430081 168.41711317557798,7.09625079135526 168.41711317557798,7.63101014828041 168.95187253250316,7.63101014828041 169.48663188942834,8.165769505205589 169.48663188942834,8.165769505205589 169.48663188942834,8.700528862130767 170.02139124635352,8.700528862130767 170.02139124635352,9.235288219055915 170.02139124635352,9.770047575981096 170.02139124635352,10.304806932906274 170.02139124635352,10.839566289831453 170.02139124635352,10.839566289831453 170.02139124635352,11.374325646756603 169.48663188942834,11.374325646756603 169.48663188942834,11.374325646756603 169.48663188942834,11.909085003681781 168.41711317557798,11.909085003681781 167.8823538186528,12.44384436060696 167.34759446172762,12.44384436060696 166.27807574787732,12.44384436060696 165.74331639095215,12.44384436060696 165.74331639095215,12.978603717532138 165.20855703402694,12.978603717532138 164.6737976771018,12.978603717532138 164.1390383201766,12.978603717532138 163.60427896325143,12.978603717532138 163.06951960632625,12.978603717532138 162.53476024940113,12.978603717532138 162.00000089247595,12.978603717532138 161.46524153555077,12.978603717532138 160.9304821786256,12.978603717532138 160.39572282170042,12.978603717532138 159.86096346477524,12.978603717532138 159.32620410785006,12.978603717532138 158.79144475092494,12.978603717532138 157.72192603707458,12.978603717532138 157.1871666801494,12.978603717532138 156.65240732322422,12.978603717532138 156.11764796629905,12.978603717532138 155.58288860937387,12.978603717532138 154.51336989552357,12.978603717532138 153.9786105385984,12.978603717532138 152.90909182474803,12.978603717532138 151.83957311089767,12.978603717532138 150.77005439704737,12.978603717532138 149.70053568319702,12.978603717532138 148.63101696934666,12.978603717532138 147.56149825549636,12.978603717532138 147.02673889857118,12.978603717532138 145.95722018472082,12.978603717532138 144.88770147087047,12.978603717532138 144.3529421139453,12.978603717532138 142.7486640431698,12.978603717532138 141.67914532931945,12.978603717532138 140.07486725854397,12.978603717532138 139.00534854469362,12.44384436060696 137.93582983084326,12.44384436060696 136.8663111169929,12.44384436060696 135.26203304621743,12.44384436060696 134.72727368929225,12.44384436060696 133.1229956185167,12.44384436060696 132.0534769046664,12.44384436060696 130.98395819081605,12.44384436060696 130.44919883389088,12.44384436060696 129.37968012004052,12.44384436060696 128.31016140619022,12.44384436060696 127.24064269233986,12.44384436060696 126.70588333541468,12.44384436060696 125.63636462156433,12.44384436060696 124.56684590771403,12.44384436060696 123.49732719386367,12.44384436060696 122.96256783693849,12.44384436060696 121.89304912308813,12.44384436060696 120.82353040923783,12.44384436060696 120.28877105231264,12.44384436060696 118.68449298153712,12.44384436060696 117.61497426768682,12.44384436060696 116.54545555383646,12.44384436060696 116.01069619691128,12.44384436060696 113.87165876921063,12.44384436060696 112.80214005536027,12.44384436060696 111.19786198458473,12.44384436060696 110.12834327073442,11.909085003681781 108.5240651999589,11.909085003681781 106.91978712918336,11.374325646756603 104.7807497014827,11.374325646756603 102.64171227378205,10.839566289831453 101.03743420300651,10.839566289831453 98.8983967753058,10.839566289831453 96.75935934760514,10.839566289831453 95.68984063375478,10.839566289831453 94.0855625629793,10.839566289831453 93.01604384912895,10.839566289831453 91.41176577835341,10.839566289831453 90.87700642142829,10.839566289831453 89.80748770757793,10.839566289831453 89.27272835065276,10.839566289831453 88.73796899372758,10.839566289831453 87.6684502798772,10.839566289831453 86.59893156602692,10.839566289831453 86.06417220910174,10.304806932906274 85.52941285217656,10.304806932906274 84.4598941383262,10.304806932906274 82.85561606755073,10.304806932906274 81.78609735370037,10.304806932906274 80.71657863985001,10.304806932906274 80.18181928292483,10.304806932906274 79.11230056907453,10.304806932906274 78.04278185522418,10.304806932906274 76.97326314137382,10.304806932906274 75.90374442752352,10.304806932906274 75.36898507059834,10.304806932906274 74.83422571367316,10.304806932906274 73.7647069998228,10.304806932906274 72.69518828597245,10.304806932906274 71.62566957212215,10.304806932906274 70.5561508582718,10.304806932906274 69.48663214442143,10.304806932906274 68.41711343057113,10.304806932906274 67.34759471672078,10.304806932906274 66.27807600287042,10.304806932906274 65.74331664594524,10.304806932906274 64.67379793209494,10.304806932906274 64.13903857516976,10.304806932906274 63.06951986131941,10.304806932906274 61.46524179054387,10.304806932906274 60.39572307669357,10.304806932906274 59.326204362843214,10.304806932906274 57.72192629206768,10.304806932906274 56.65240757821738,10.304806932906274 55.04812950744184,10.304806932906274 53.978610793591486,10.304806932906274 52.37433272281601,10.304806932906274 51.30481400896565,10.304806932906274 50.235295295115286,10.304806932906274 49.16577658126499,10.304806932906274 47.56149851048946,10.304806932906274 47.02673915356428,10.304806932906274 45.95722043971398,10.304806932906274 45.4224610827888,10.304806932906274 44.88770172586362,10.304806932906274 43.818183012013264,10.304806932906274 43.283423655088086,10.304806932906274 42.74866429816291,10.304806932906274 41.67914558431261,10.304806932906274 40.60962687046225,10.304806932906274 39.005348799686715,10.304806932906274 37.93583008583642,10.304806932906274 36.86631137198606,10.304806932906274 35.7967926581357,10.304806932906274 34.7272739442854,10.304806932906274 34.19251458736022,10.304806932906274 33.122995873509865,10.304806932906274 32.588236516584686,10.304806932906274 32.05347715965951,10.304806932906274 30.983958445809208,10.304806932906274 30.44919908888403,10.304806932906274 29.91443973195885,10.304806932906274 29.379680375033672,10.304806932906274 28.844921018108494,10.304806932906274 28.310161661183315,10.304806932906274 28.310161661183315,10.839566289831453 27.775402304258137,10.839566289831453 27.240642947333015,10.839566289831453 26.705883590407836,10.839566289831453 26.171124233482658,10.839566289831453 25.63636487655748,10.839566289831453 25.1016055196323,11.374325646756603 24.566846162707122,11.374325646756603 24.566846162707122,11.374325646756603 24.032086805781947,11.909085003681781 23.497327448856822,11.909085003681781 22.962568091931644,11.909085003681781 22.427808735006465,11.909085003681781 21.893049378081287,11.909085003681781 21.893049378081287,12.44384436060696 21.358290021156108,12.44384436060696 20.82353066423093,12.44384436060696 20.28877130730575,12.44384436060696 20.28877130730575,12.44384436060696 19.75401195038063,12.44384436060696 19.75401195038063,12.44384436060696 19.21925259345545,12.44384436060696 19.21925259345545,12.978603717532138 18.684493236530272,12.978603717532138 18.149733879605094,12.978603717532138 18.149733879605094,13.513363074457317 17.614974522679915,13.513363074457317 17.080215165754737,14.048122431382438 16.54545580882956,14.048122431382438 16.54545580882956,14.582881788307617 16.54545580882956,15.117641145232795 16.010696451904437,15.117641145232795 16.010696451904437,15.652400502157974 16.010696451904437,15.652400502157974 16.010696451904437,16.187159859083152 16.010696451904437,16.72191921600833 16.010696451904437,17.25667857293351 16.010696451904437,17.79143792985863 16.010696451904437,17.79143792985863 16.010696451904437,18.32619728678381 16.010696451904437,18.860956643708988 16.010696451904437,19.395716000634167 16.010696451904437,19.395716000634167 16.010696451904437,19.93047535755934 16.54545580882956,20.465234714484524 17.080215165754737,20.465234714484524 17.080215165754737,20.999994071409702 17.614974522679915,20.999994071409702 18.149733879605094,20.999994071409702 19.21925259345545,21.534753428334824 19.21925259345545,21.534753428334824 19.75401195038063,21.534753428334824 20.28877130730575,22.069512785260002 20.82353066423093,22.069512785260002 21.358290021156108,22.069512785260002 21.893049378081287,22.069512785260002 22.427808735006465,22.60427214218518 22.427808735006465,22.60427214218518 22.962568091931644,22.60427214218518 22.962568091931644,23.13903149911036 23.497327448856822,23.13903149911036 23.497327448856822,23.13903149911036 24.032086805781947,23.13903149911036 " style="color: rgb(0, 0, 0);"/></g></svg>